<mxfile host="app.diagrams.net" modified="2020-11-23T16:48:24.802Z" agent="5.0 (Windows)" etag="OV-t9x7tac4N958PB76T" version="13.10.1" type="github">
  <diagram id="R2lEEEUBdFMjLlhIrx00" name="Page-1">
    <mxGraphModel dx="1663" dy="452" grid="1" gridSize="10" guides="1" tooltips="1" connect="1" arrows="1" fold="1" page="1" pageScale="1" pageWidth="850" pageHeight="1100" math="0" shadow="0" extFonts="Permanent Marker^https://fonts.googleapis.com/css?family=Permanent+Marker">
      <root>
        <mxCell id="0" />
        <mxCell id="1" parent="0" />
        <mxCell id="5WyVkJElKRj0DCjp1r2Y-20" value="Components" style="shape=table;startSize=30;container=1;collapsible=1;childLayout=tableLayout;fixedRows=1;rowLines=0;fontStyle=1;align=center;resizeLast=1;" vertex="1" parent="1">
          <mxGeometry x="80" y="320" width="180" height="190" as="geometry" />
        </mxCell>
        <mxCell id="5WyVkJElKRj0DCjp1r2Y-21" value="" style="shape=partialRectangle;collapsible=0;dropTarget=0;pointerEvents=0;fillColor=none;top=0;left=0;bottom=1;right=0;points=[[0,0.5],[1,0.5]];portConstraint=eastwest;" vertex="1" parent="5WyVkJElKRj0DCjp1r2Y-20">
          <mxGeometry y="30" width="180" height="30" as="geometry" />
        </mxCell>
        <mxCell id="5WyVkJElKRj0DCjp1r2Y-22" value="PK" style="shape=partialRectangle;connectable=0;fillColor=none;top=0;left=0;bottom=0;right=0;fontStyle=1;overflow=hidden;" vertex="1" parent="5WyVkJElKRj0DCjp1r2Y-21">
          <mxGeometry width="30" height="30" as="geometry" />
        </mxCell>
        <mxCell id="5WyVkJElKRj0DCjp1r2Y-23" value="id" style="shape=partialRectangle;connectable=0;fillColor=none;top=0;left=0;bottom=0;right=0;align=left;spacingLeft=6;fontStyle=5;overflow=hidden;" vertex="1" parent="5WyVkJElKRj0DCjp1r2Y-21">
          <mxGeometry x="30" width="150" height="30" as="geometry" />
        </mxCell>
        <mxCell id="5WyVkJElKRj0DCjp1r2Y-24" value="" style="shape=partialRectangle;collapsible=0;dropTarget=0;pointerEvents=0;fillColor=none;top=0;left=0;bottom=0;right=0;points=[[0,0.5],[1,0.5]];portConstraint=eastwest;" vertex="1" parent="5WyVkJElKRj0DCjp1r2Y-20">
          <mxGeometry y="60" width="180" height="30" as="geometry" />
        </mxCell>
        <mxCell id="5WyVkJElKRj0DCjp1r2Y-25" value="" style="shape=partialRectangle;connectable=0;fillColor=none;top=0;left=0;bottom=0;right=0;editable=1;overflow=hidden;" vertex="1" parent="5WyVkJElKRj0DCjp1r2Y-24">
          <mxGeometry width="30" height="30" as="geometry" />
        </mxCell>
        <mxCell id="5WyVkJElKRj0DCjp1r2Y-26" value="name" style="shape=partialRectangle;connectable=0;fillColor=none;top=0;left=0;bottom=0;right=0;align=left;spacingLeft=6;overflow=hidden;" vertex="1" parent="5WyVkJElKRj0DCjp1r2Y-24">
          <mxGeometry x="30" width="150" height="30" as="geometry" />
        </mxCell>
        <mxCell id="5WyVkJElKRj0DCjp1r2Y-27" value="" style="shape=partialRectangle;collapsible=0;dropTarget=0;pointerEvents=0;fillColor=none;top=0;left=0;bottom=0;right=0;points=[[0,0.5],[1,0.5]];portConstraint=eastwest;" vertex="1" parent="5WyVkJElKRj0DCjp1r2Y-20">
          <mxGeometry y="90" width="180" height="30" as="geometry" />
        </mxCell>
        <mxCell id="5WyVkJElKRj0DCjp1r2Y-28" value="" style="shape=partialRectangle;connectable=0;fillColor=none;top=0;left=0;bottom=0;right=0;editable=1;overflow=hidden;" vertex="1" parent="5WyVkJElKRj0DCjp1r2Y-27">
          <mxGeometry width="30" height="30" as="geometry" />
        </mxCell>
        <mxCell id="5WyVkJElKRj0DCjp1r2Y-29" value="desc" style="shape=partialRectangle;connectable=0;fillColor=none;top=0;left=0;bottom=0;right=0;align=left;spacingLeft=6;overflow=hidden;" vertex="1" parent="5WyVkJElKRj0DCjp1r2Y-27">
          <mxGeometry x="30" width="150" height="30" as="geometry" />
        </mxCell>
        <mxCell id="5WyVkJElKRj0DCjp1r2Y-30" value="" style="shape=partialRectangle;collapsible=0;dropTarget=0;pointerEvents=0;fillColor=none;top=0;left=0;bottom=0;right=0;points=[[0,0.5],[1,0.5]];portConstraint=eastwest;" vertex="1" parent="5WyVkJElKRj0DCjp1r2Y-20">
          <mxGeometry y="120" width="180" height="30" as="geometry" />
        </mxCell>
        <mxCell id="5WyVkJElKRj0DCjp1r2Y-31" value="" style="shape=partialRectangle;connectable=0;fillColor=none;top=0;left=0;bottom=0;right=0;editable=1;overflow=hidden;" vertex="1" parent="5WyVkJElKRj0DCjp1r2Y-30">
          <mxGeometry width="30" height="30" as="geometry" />
        </mxCell>
        <mxCell id="5WyVkJElKRj0DCjp1r2Y-32" value="supplier" style="shape=partialRectangle;connectable=0;fillColor=none;top=0;left=0;bottom=0;right=0;align=left;spacingLeft=6;overflow=hidden;" vertex="1" parent="5WyVkJElKRj0DCjp1r2Y-30">
          <mxGeometry x="30" width="150" height="30" as="geometry" />
        </mxCell>
        <mxCell id="5WyVkJElKRj0DCjp1r2Y-35" value="product_part" style="shape=partialRectangle;connectable=0;fillColor=none;top=0;left=0;bottom=0;right=0;align=left;spacingLeft=6;overflow=hidden;" vertex="1" parent="1">
          <mxGeometry x="120" y="480" width="150" height="30" as="geometry" />
        </mxCell>
        <mxCell id="5WyVkJElKRj0DCjp1r2Y-36" value="Supplier" style="shape=table;startSize=30;container=1;collapsible=1;childLayout=tableLayout;fixedRows=1;rowLines=0;fontStyle=1;align=center;resizeLast=1;" vertex="1" parent="1">
          <mxGeometry x="-180" y="320" width="180" height="160" as="geometry" />
        </mxCell>
        <mxCell id="5WyVkJElKRj0DCjp1r2Y-37" value="" style="shape=partialRectangle;collapsible=0;dropTarget=0;pointerEvents=0;fillColor=none;top=0;left=0;bottom=1;right=0;points=[[0,0.5],[1,0.5]];portConstraint=eastwest;" vertex="1" parent="5WyVkJElKRj0DCjp1r2Y-36">
          <mxGeometry y="30" width="180" height="30" as="geometry" />
        </mxCell>
        <mxCell id="5WyVkJElKRj0DCjp1r2Y-38" value="PK" style="shape=partialRectangle;connectable=0;fillColor=none;top=0;left=0;bottom=0;right=0;fontStyle=1;overflow=hidden;" vertex="1" parent="5WyVkJElKRj0DCjp1r2Y-37">
          <mxGeometry width="30" height="30" as="geometry" />
        </mxCell>
        <mxCell id="5WyVkJElKRj0DCjp1r2Y-39" value="UniqueID" style="shape=partialRectangle;connectable=0;fillColor=none;top=0;left=0;bottom=0;right=0;align=left;spacingLeft=6;fontStyle=5;overflow=hidden;" vertex="1" parent="5WyVkJElKRj0DCjp1r2Y-37">
          <mxGeometry x="30" width="150" height="30" as="geometry" />
        </mxCell>
        <mxCell id="5WyVkJElKRj0DCjp1r2Y-40" value="" style="shape=partialRectangle;collapsible=0;dropTarget=0;pointerEvents=0;fillColor=none;top=0;left=0;bottom=0;right=0;points=[[0,0.5],[1,0.5]];portConstraint=eastwest;" vertex="1" parent="5WyVkJElKRj0DCjp1r2Y-36">
          <mxGeometry y="60" width="180" height="30" as="geometry" />
        </mxCell>
        <mxCell id="5WyVkJElKRj0DCjp1r2Y-41" value="" style="shape=partialRectangle;connectable=0;fillColor=none;top=0;left=0;bottom=0;right=0;editable=1;overflow=hidden;" vertex="1" parent="5WyVkJElKRj0DCjp1r2Y-40">
          <mxGeometry width="30" height="30" as="geometry" />
        </mxCell>
        <mxCell id="5WyVkJElKRj0DCjp1r2Y-42" value="Row 1" style="shape=partialRectangle;connectable=0;fillColor=none;top=0;left=0;bottom=0;right=0;align=left;spacingLeft=6;overflow=hidden;" vertex="1" parent="5WyVkJElKRj0DCjp1r2Y-40">
          <mxGeometry x="30" width="150" height="30" as="geometry" />
        </mxCell>
        <mxCell id="5WyVkJElKRj0DCjp1r2Y-43" value="" style="shape=partialRectangle;collapsible=0;dropTarget=0;pointerEvents=0;fillColor=none;top=0;left=0;bottom=0;right=0;points=[[0,0.5],[1,0.5]];portConstraint=eastwest;" vertex="1" parent="5WyVkJElKRj0DCjp1r2Y-36">
          <mxGeometry y="90" width="180" height="30" as="geometry" />
        </mxCell>
        <mxCell id="5WyVkJElKRj0DCjp1r2Y-44" value="" style="shape=partialRectangle;connectable=0;fillColor=none;top=0;left=0;bottom=0;right=0;editable=1;overflow=hidden;" vertex="1" parent="5WyVkJElKRj0DCjp1r2Y-43">
          <mxGeometry width="30" height="30" as="geometry" />
        </mxCell>
        <mxCell id="5WyVkJElKRj0DCjp1r2Y-45" value="Row 2" style="shape=partialRectangle;connectable=0;fillColor=none;top=0;left=0;bottom=0;right=0;align=left;spacingLeft=6;overflow=hidden;" vertex="1" parent="5WyVkJElKRj0DCjp1r2Y-43">
          <mxGeometry x="30" width="150" height="30" as="geometry" />
        </mxCell>
        <mxCell id="5WyVkJElKRj0DCjp1r2Y-46" value="" style="shape=partialRectangle;collapsible=0;dropTarget=0;pointerEvents=0;fillColor=none;top=0;left=0;bottom=0;right=0;points=[[0,0.5],[1,0.5]];portConstraint=eastwest;" vertex="1" parent="5WyVkJElKRj0DCjp1r2Y-36">
          <mxGeometry y="120" width="180" height="30" as="geometry" />
        </mxCell>
        <mxCell id="5WyVkJElKRj0DCjp1r2Y-47" value="" style="shape=partialRectangle;connectable=0;fillColor=none;top=0;left=0;bottom=0;right=0;editable=1;overflow=hidden;" vertex="1" parent="5WyVkJElKRj0DCjp1r2Y-46">
          <mxGeometry width="30" height="30" as="geometry" />
        </mxCell>
        <mxCell id="5WyVkJElKRj0DCjp1r2Y-48" value="Row 3" style="shape=partialRectangle;connectable=0;fillColor=none;top=0;left=0;bottom=0;right=0;align=left;spacingLeft=6;overflow=hidden;" vertex="1" parent="5WyVkJElKRj0DCjp1r2Y-46">
          <mxGeometry x="30" width="150" height="30" as="geometry" />
        </mxCell>
        <mxCell id="5WyVkJElKRj0DCjp1r2Y-49" value="Product" style="shape=table;startSize=30;container=1;collapsible=1;childLayout=tableLayout;fixedRows=1;rowLines=0;fontStyle=1;align=center;resizeLast=1;" vertex="1" parent="1">
          <mxGeometry x="360" y="320" width="180" height="150" as="geometry" />
        </mxCell>
        <mxCell id="5WyVkJElKRj0DCjp1r2Y-50" value="" style="shape=partialRectangle;collapsible=0;dropTarget=0;pointerEvents=0;fillColor=none;top=0;left=0;bottom=1;right=0;points=[[0,0.5],[1,0.5]];portConstraint=eastwest;" vertex="1" parent="5WyVkJElKRj0DCjp1r2Y-49">
          <mxGeometry y="30" width="180" height="30" as="geometry" />
        </mxCell>
        <mxCell id="5WyVkJElKRj0DCjp1r2Y-51" value="PK" style="shape=partialRectangle;connectable=0;fillColor=none;top=0;left=0;bottom=0;right=0;fontStyle=1;overflow=hidden;" vertex="1" parent="5WyVkJElKRj0DCjp1r2Y-50">
          <mxGeometry width="30" height="30" as="geometry" />
        </mxCell>
        <mxCell id="5WyVkJElKRj0DCjp1r2Y-52" value="id" style="shape=partialRectangle;connectable=0;fillColor=none;top=0;left=0;bottom=0;right=0;align=left;spacingLeft=6;fontStyle=5;overflow=hidden;" vertex="1" parent="5WyVkJElKRj0DCjp1r2Y-50">
          <mxGeometry x="30" width="150" height="30" as="geometry" />
        </mxCell>
        <mxCell id="5WyVkJElKRj0DCjp1r2Y-53" value="" style="shape=partialRectangle;collapsible=0;dropTarget=0;pointerEvents=0;fillColor=none;top=0;left=0;bottom=0;right=0;points=[[0,0.5],[1,0.5]];portConstraint=eastwest;" vertex="1" parent="5WyVkJElKRj0DCjp1r2Y-49">
          <mxGeometry y="60" width="180" height="30" as="geometry" />
        </mxCell>
        <mxCell id="5WyVkJElKRj0DCjp1r2Y-54" value="" style="shape=partialRectangle;connectable=0;fillColor=none;top=0;left=0;bottom=0;right=0;editable=1;overflow=hidden;" vertex="1" parent="5WyVkJElKRj0DCjp1r2Y-53">
          <mxGeometry width="30" height="30" as="geometry" />
        </mxCell>
        <mxCell id="5WyVkJElKRj0DCjp1r2Y-55" value="name" style="shape=partialRectangle;connectable=0;fillColor=none;top=0;left=0;bottom=0;right=0;align=left;spacingLeft=6;overflow=hidden;" vertex="1" parent="5WyVkJElKRj0DCjp1r2Y-53">
          <mxGeometry x="30" width="150" height="30" as="geometry" />
        </mxCell>
        <mxCell id="5WyVkJElKRj0DCjp1r2Y-56" value="" style="shape=partialRectangle;collapsible=0;dropTarget=0;pointerEvents=0;fillColor=none;top=0;left=0;bottom=0;right=0;points=[[0,0.5],[1,0.5]];portConstraint=eastwest;" vertex="1" parent="5WyVkJElKRj0DCjp1r2Y-49">
          <mxGeometry y="90" width="180" height="30" as="geometry" />
        </mxCell>
        <mxCell id="5WyVkJElKRj0DCjp1r2Y-57" value="" style="shape=partialRectangle;connectable=0;fillColor=none;top=0;left=0;bottom=0;right=0;editable=1;overflow=hidden;" vertex="1" parent="5WyVkJElKRj0DCjp1r2Y-56">
          <mxGeometry width="30" height="30" as="geometry" />
        </mxCell>
        <mxCell id="5WyVkJElKRj0DCjp1r2Y-58" value="quantity" style="shape=partialRectangle;connectable=0;fillColor=none;top=0;left=0;bottom=0;right=0;align=left;spacingLeft=6;overflow=hidden;" vertex="1" parent="5WyVkJElKRj0DCjp1r2Y-56">
          <mxGeometry x="30" width="150" height="30" as="geometry" />
        </mxCell>
        <mxCell id="5WyVkJElKRj0DCjp1r2Y-59" value="" style="shape=partialRectangle;collapsible=0;dropTarget=0;pointerEvents=0;fillColor=none;top=0;left=0;bottom=0;right=0;points=[[0,0.5],[1,0.5]];portConstraint=eastwest;" vertex="1" parent="5WyVkJElKRj0DCjp1r2Y-49">
          <mxGeometry y="120" width="180" height="30" as="geometry" />
        </mxCell>
        <mxCell id="5WyVkJElKRj0DCjp1r2Y-60" value="" style="shape=partialRectangle;connectable=0;fillColor=none;top=0;left=0;bottom=0;right=0;editable=1;overflow=hidden;" vertex="1" parent="5WyVkJElKRj0DCjp1r2Y-59">
          <mxGeometry width="30" height="30" as="geometry" />
        </mxCell>
        <mxCell id="5WyVkJElKRj0DCjp1r2Y-61" value="" style="shape=partialRectangle;connectable=0;fillColor=none;top=0;left=0;bottom=0;right=0;align=left;spacingLeft=6;overflow=hidden;" vertex="1" parent="5WyVkJElKRj0DCjp1r2Y-59">
          <mxGeometry x="30" width="150" height="30" as="geometry" />
        </mxCell>
        <mxCell id="5WyVkJElKRj0DCjp1r2Y-62" value="" style="edgeStyle=entityRelationEdgeStyle;fontSize=12;html=1;endArrow=ERoneToMany;startArrow=ERzeroToMany;exitX=0;exitY=0.5;exitDx=0;exitDy=0;" edge="1" parent="1" source="5WyVkJElKRj0DCjp1r2Y-50" target="5WyVkJElKRj0DCjp1r2Y-21">
          <mxGeometry width="100" height="100" relative="1" as="geometry">
            <mxPoint x="330" y="540" as="sourcePoint" />
            <mxPoint x="420" y="620" as="targetPoint" />
          </mxGeometry>
        </mxCell>
        <mxCell id="5WyVkJElKRj0DCjp1r2Y-64" value="" style="edgeStyle=entityRelationEdgeStyle;fontSize=12;html=1;endArrow=ERoneToMany;startArrow=ERoneToMany;entryX=0;entryY=0.5;entryDx=0;entryDy=0;" edge="1" parent="1" source="5WyVkJElKRj0DCjp1r2Y-37" target="5WyVkJElKRj0DCjp1r2Y-21">
          <mxGeometry width="100" height="100" relative="1" as="geometry">
            <mxPoint x="-20" y="330" as="sourcePoint" />
            <mxPoint x="80" y="230" as="targetPoint" />
          </mxGeometry>
        </mxCell>
      </root>
    </mxGraphModel>
  </diagram>
</mxfile>
